<svg width="476" height="87" viewBox="0 0 476 87" fill="none" xmlns="http://www.w3.org/2000/svg">
<g clip-path="url(#clip0_17_1823)">
<path d="M70.2412 4.87375C61.6441 -2.34617 47.9253 -1.44368 29.4507 7.03972C7.13476 17.3281 3.29349 25.631 2.37891 27.797C-3.65736 41.3343 2.92766 53.4277 10.976 64.7991C20.3048 78.1559 28.719 83.9318 39.1453 84.4733C44.084 84.8343 50.4861 84.4733 58.5345 76.7119C63.4733 72.019 68.412 64.2576 73.1679 51.6227C79.0212 35.7389 85.4233 17.6891 70.2412 4.87375ZM55.7907 46.3883C48.657 66.243 43.5353 65.7015 39.5111 65.3405C35.6698 64.9795 30.914 61.1891 25.6094 53.6082C17.9269 42.4173 18.2927 39.1683 20.1219 34.8364C21.4023 31.7679 25.9752 28.6995 37.3161 23.2845C50.1203 17.1476 55.4249 18.2306 57.437 19.6746C62.1928 23.2845 62.1928 28.519 55.7907 46.3883Z" fill="url(#paint0_radial_17_1823)"/>
<path fill-rule="evenodd" clip-rule="evenodd" d="M172.674 7.40045H177.979C178.71 7.40045 179.442 8.12244 179.259 8.84444V61.9108C179.259 62.6328 178.71 63.3548 177.796 63.3548H173.04C172.308 63.3548 171.577 62.6328 171.577 61.9108L171.394 59.2034C167.369 62.9938 162.065 64.9793 156.577 64.9793C144.322 64.9793 134.444 54.6909 134.444 42.2366C134.444 29.7822 144.322 19.4938 156.577 19.4938C162.065 19.4938 167.187 21.4793 171.211 25.0892V8.84444C171.211 8.12244 171.759 7.40045 172.674 7.40045ZM156.577 56.4959C164.26 56.4959 170.479 49.998 170.479 42.2366C170.479 34.2946 164.26 27.9772 156.577 27.9772C148.895 27.9772 142.676 34.4751 142.676 42.2366C142.676 50.1785 148.895 56.4959 156.577 56.4959ZM221.33 23.1037C222.61 24.1867 223.89 25.4502 224.988 27.0747C226.085 28.5187 226.817 30.3236 227.183 31.7676C228.28 35.5581 228.28 39.529 228.28 43.3195V45.4855V61.7303C228.28 62.4523 227.732 63.1743 226.817 63.1743H221.147C220.415 63.1743 219.683 62.6328 219.683 61.7303V41.5145C219.683 38.446 219.683 35.0166 217.854 32.1286C216.94 30.5041 215.476 29.4211 213.83 28.8796C212.001 28.3382 209.806 27.9772 207.977 28.3382C203.77 29.0601 200.111 31.0456 195.904 33.9336V61.5498C195.904 62.2718 195.355 62.9938 194.441 62.9938H188.77C188.039 62.9938 187.307 62.4523 187.307 61.5498V22.3817C187.307 21.6597 187.856 20.9377 188.77 20.9377H193.892C194.624 20.9377 195.355 21.6597 195.355 22.3817L195.538 25.2697C197.733 23.2842 201.392 20.7572 206.513 19.8548C209.989 19.3133 213.464 19.4938 216.574 20.5767C218.403 21.1182 219.866 22.0207 221.33 23.1037ZM276.754 20.9377H271.449C270.535 20.9377 269.986 21.6597 269.986 22.3817V24.9086C265.962 21.2987 260.84 19.3132 255.536 19.3132C243.28 19.3132 233.403 29.6016 233.403 42.056C233.403 54.5103 243.28 64.7987 255.536 64.7987C261.023 64.7987 266.328 62.8132 270.352 59.0228L270.535 61.7302C270.535 62.4522 271.266 63.1742 271.998 63.1742H276.754C277.669 63.1742 278.217 62.4522 278.217 61.7302V22.5622C278.217 21.6597 277.669 20.9377 276.754 20.9377ZM269.254 42.2365C269.254 49.9979 263.035 56.4958 255.353 56.4958C247.67 56.4958 241.451 50.1784 241.451 42.2365C241.451 34.475 247.67 27.9771 255.353 27.9771C263.035 27.9771 269.254 34.2945 269.254 42.2365ZM110.299 19.4938C121.091 19.4938 129.323 27.4357 130.969 37.724C131.149 38.7003 131.24 39.633 131.308 40.3288C131.379 41.0482 131.425 41.5145 131.518 41.5145C131.518 43.5 130.054 45.1245 128.042 45.1245H96.7633C98.0437 51.6224 103.531 56.4958 110.299 56.4958H110.848C116.701 56.4958 120.543 54.8713 123.469 51.2614C123.652 50.9004 124.201 50.7199 124.567 50.7199C124.933 50.7199 125.298 50.9004 125.664 51.2614L128.957 54.8713C129.506 55.4128 129.506 56.3153 128.957 56.8568C124.384 61.9108 117.799 64.9792 110.482 64.9792H110.116C97.8608 64.9792 87.9833 54.6909 87.9833 42.2365C87.9833 29.7821 97.8608 19.4938 110.116 19.4938H110.299ZM109.933 28.1577C104.263 28.1577 99.3242 31.7676 97.3121 36.8216H122.555C120.908 31.5871 116.153 28.1577 110.299 28.1577H109.933Z" fill="white"/>
</g>
<path fill-rule="evenodd" clip-rule="evenodd" d="M331.13 7.82983H336.434C337.166 7.82983 337.898 8.55183 337.715 9.27382V62.3402C337.715 63.0622 337.166 63.7842 336.251 63.7842H331.496C330.764 63.7842 330.032 63.0622 330.032 62.3402L329.849 59.6327C325.825 63.4232 320.521 65.4087 315.033 65.4087C302.778 65.4087 292.9 55.1203 292.9 42.6659C292.9 30.2116 302.778 19.9232 315.033 19.9232C320.521 19.9232 325.642 21.9087 329.666 25.5186V9.27382C329.666 8.55183 330.215 7.82983 331.13 7.82983ZM315.033 56.9253C322.716 56.9253 328.935 50.4273 328.935 42.6659C328.935 34.724 322.716 28.4066 315.033 28.4066C307.35 28.4066 301.131 34.9045 301.131 42.6659C301.131 50.6078 307.35 56.9253 315.033 56.9253ZM352.373 46.9166C351.676 44.9862 351.327 42.9002 351.327 40.6584C351.327 38.4167 351.676 36.3617 352.373 34.4936C353.07 32.5632 354.053 30.9441 355.321 29.6364C356.588 28.2665 358.141 27.2079 359.979 26.4606C361.818 25.6511 363.878 25.2463 366.159 25.2463C368.441 25.2463 370.501 25.6511 372.339 26.4606C374.178 27.2079 375.731 28.2665 376.998 29.6364C378.266 30.9441 379.248 32.5632 379.946 34.4936C380.643 36.3617 380.991 38.4167 380.991 40.6584C380.991 42.9002 380.643 44.9862 379.946 46.9166C379.248 48.7848 378.266 50.4038 376.998 51.7738C375.731 53.0815 374.178 54.1401 372.339 54.9496C370.501 55.6969 368.441 56.0705 366.159 56.0705C363.878 56.0705 361.818 55.6969 359.979 54.9496C358.141 54.1401 356.588 53.0815 355.321 51.7738C354.053 50.4038 353.07 48.7848 352.373 46.9166ZM344.006 31.598C342.802 34.4002 342.2 37.4203 342.2 40.6584C342.2 43.8965 342.802 46.9478 344.006 49.8123C345.274 52.6145 346.986 55.0742 349.141 57.1914C351.296 59.2463 353.831 60.8965 356.747 62.1419C359.662 63.3251 362.8 63.9167 366.159 63.9167C369.519 63.9167 372.656 63.3251 375.572 62.1419C378.488 60.8965 381.023 59.2463 383.178 57.1914C385.333 55.0742 387.013 52.6145 388.217 49.8123C389.485 46.9478 390.119 43.8965 390.119 40.6584C390.119 37.4203 389.485 34.4002 388.217 31.598C387.013 28.7958 385.333 26.3361 383.178 24.2189C381.023 22.1016 378.488 20.4515 375.572 19.2683C372.656 18.0229 369.519 17.4002 366.159 17.4002C362.8 17.4002 359.662 18.0229 356.747 19.2683C353.831 20.4515 351.296 22.1016 349.141 24.2189C346.986 26.3361 345.274 28.7958 344.006 31.598ZM422.802 26.6474C424.576 27.4569 426.256 28.6712 427.841 30.2903L434.306 24.4991C432.087 22.1328 429.457 20.3892 426.415 19.2683C423.435 18.0852 420.298 17.4936 417.002 17.4936C413.452 17.4936 410.22 18.0852 407.304 19.2683C404.452 20.3892 401.98 21.9771 399.888 24.032C397.86 26.087 396.275 28.5467 395.134 31.4112C393.993 34.2756 393.423 37.4203 393.423 40.8452C393.423 44.2701 393.993 47.4148 395.134 50.2793C396.275 53.0815 397.891 55.5101 399.983 57.565C402.075 59.5577 404.547 61.1145 407.399 62.2353C410.315 63.3562 413.516 63.9167 417.002 63.9167C420.298 63.9167 423.404 63.3874 426.319 62.3288C429.299 61.2701 431.897 59.5265 434.116 57.098L428.031 51.12C426.573 52.739 424.988 53.9844 423.277 54.8562C421.566 55.6657 419.506 56.0705 417.097 56.0705C414.878 56.0705 412.882 55.6969 411.107 54.9496C409.332 54.1401 407.811 53.0504 406.543 51.6804C405.276 50.3104 404.293 48.7225 403.596 46.9166C402.899 45.0485 402.55 43.087 402.55 41.032C402.55 38.9771 402.835 37.0156 403.406 35.1474C404.04 33.217 404.927 31.5357 406.068 30.1035C407.272 28.609 408.73 27.4569 410.442 26.6474C412.216 25.7756 414.276 25.3397 416.622 25.3397C419.03 25.3397 421.09 25.7756 422.802 26.6474Z" fill="#A0A3A5"/>
<path d="M468.754 29.7424C467.696 28.1339 466.208 26.8347 464.29 25.8448C462.372 24.7931 460.222 24.2672 457.841 24.2672C456.783 24.2672 455.725 24.391 454.667 24.6384C453.608 24.824 452.649 25.1643 451.789 25.6592C450.996 26.0923 450.334 26.68 449.805 27.4224C449.342 28.103 449.111 28.9691 449.111 30.0208C449.111 31.8768 450.004 33.2688 451.789 34.1968C453.575 35.063 456.254 35.8672 459.826 36.6096C462.074 37.1046 464.158 37.6923 466.076 38.3728C467.994 39.0534 469.647 39.9195 471.036 40.9712C472.491 41.9611 473.616 43.1675 474.409 44.5904C475.203 46.0134 475.6 47.6838 475.6 49.6016C475.6 52.2 475.071 54.3963 474.013 56.1904C472.954 57.9846 471.532 59.4694 469.747 60.6448C468.027 61.7584 466.043 62.5627 463.794 63.0576C461.545 63.5526 459.23 63.8 456.849 63.8C453.278 63.8 449.772 63.1504 446.333 61.8512C442.96 60.552 440.149 58.5723 437.9 55.912L444.547 50.6224C445.804 52.3547 447.523 53.8086 449.706 54.984C451.955 56.1595 454.402 56.7472 457.048 56.7472C458.238 56.7472 459.363 56.6544 460.421 56.4688C461.545 56.2214 462.537 55.8502 463.397 55.3552C464.323 54.8603 465.051 54.2107 465.58 53.4064C466.109 52.6022 466.373 51.5814 466.373 50.344C466.373 48.3024 465.315 46.7867 463.199 45.7968C461.148 44.807 458.106 43.879 454.071 43.0128C452.484 42.6416 450.864 42.2086 449.21 41.7136C447.623 41.1568 446.168 40.4144 444.845 39.4864C443.522 38.5584 442.431 37.4139 441.571 36.0528C440.777 34.6299 440.38 32.8976 440.38 30.856C440.38 28.5051 440.876 26.4944 441.868 24.824C442.927 23.0918 444.283 21.6998 445.936 20.648C447.59 19.5344 449.475 18.7302 451.591 18.2352C453.708 17.6784 455.89 17.4 458.139 17.4C461.512 17.4 464.753 18.0187 467.862 19.256C471.036 20.4934 473.484 22.2875 475.203 24.6384L468.754 29.7424Z" fill="#A0A3A5"/>
<defs>
<radialGradient id="paint0_radial_17_1823" cx="0" cy="0" r="1" gradientUnits="userSpaceOnUse" gradientTransform="translate(42.1422 44.6311) scale(78.5748 77.5356)">
<stop offset="0.2519" stop-color="#17E03B"/>
<stop offset="0.4262" stop-color="#1AE981"/>
<stop offset="0.5994" stop-color="#1DF2C3"/>
<stop offset="0.7243" stop-color="#1EF7EC"/>
<stop offset="0.7885" stop-color="#1FF9FF"/>
</radialGradient>
<clipPath id="clip0_17_1823">
<rect width="278.4" height="87" fill="white"/>
</clipPath>
</defs>
</svg>
